# xmcd
#
# Track frame offsets: 
#        150
#        6565
#        24154
#        30395
#        35293
#        56860
#        73884
#        111012
#        119984
#
# Disc length: 1883 seconds
#
# Revision: 0
# Processed by: cddbd v1.5.2PL0 Copyright (c) Steve Scherf et al.
# Submitted via: ExactAudioCopy v1.3
#
DISCID=7b075909
DTITLE=Bobby Womack - In Concert
DYEAR=2011
DGENRE=Soul
TTITLE0=Womack's Grove
TTITLE1=Baby, I'm Back
TTITLE2=Nobody Wants You When You're Down and Out
TTITLE3=Daylight
TTITLE4=Woman's Got to Have It
TTITLE5=That's the Way I Feel About Cha'
TTITLE6=Inherit the Wind
TTITLE7=If You Think You're Lonely Now
TTITLE8=A World Where No One Cries
EXTD=
EXTT0=
EXTT1=
EXTT2=
EXTT3=
EXTT4=
EXTT5=
EXTT6=
EXTT7=
EXTT8=
PLAYORDER=
